<svg width="27" height="27" viewBox="0 0 27 27" fill="none" xmlns="http://www.w3.org/2000/svg">
<path fill-rule="evenodd" clip-rule="evenodd" d="M4.125 1H22.875C24.6009 1 26 2.39911 26 4.125V22.875C26 24.6009 24.6009 26 22.875 26H4.125C2.39911 26 1 24.6009 1 22.875V4.125C1 2.39911 2.39911 1 4.125 1Z" stroke="#787B85" stroke-linecap="round" stroke-linejoin="round"/>
<path d="M1 7.25H26" stroke="#787B85" stroke-linecap="round" stroke-linejoin="round"/>
<path d="M13.5 15.0625C14.3629 15.0625 15.0625 14.3629 15.0625 13.5C15.0625 12.6371 14.3629 11.9375 13.5 11.9375C12.6371 11.9375 11.9375 12.6371 11.9375 13.5C11.9375 14.3629 12.6371 15.0625 13.5 15.0625Z" fill="#787B85"/>
<path d="M7.25 15.0625C8.11295 15.0625 8.8125 14.3629 8.8125 13.5C8.8125 12.6371 8.11295 11.9375 7.25 11.9375C6.38706 11.9375 5.6875 12.6371 5.6875 13.5C5.6875 14.3629 6.38706 15.0625 7.25 15.0625Z" fill="#787B85"/>
<path d="M19.75 15.0625C20.6129 15.0625 21.3125 14.3629 21.3125 13.5C21.3125 12.6371 20.6129 11.9375 19.75 11.9375C18.8871 11.9375 18.1875 12.6371 18.1875 13.5C18.1875 14.3629 18.8871 15.0625 19.75 15.0625Z" fill="#787B85"/>
<path d="M13.5 21.3125C14.3629 21.3125 15.0625 20.6129 15.0625 19.75C15.0625 18.8871 14.3629 18.1875 13.5 18.1875C12.6371 18.1875 11.9375 18.8871 11.9375 19.75C11.9375 20.6129 12.6371 21.3125 13.5 21.3125Z" fill="#787B85"/>
<path d="M7.25 21.3125C8.11295 21.3125 8.8125 20.6129 8.8125 19.75C8.8125 18.8871 8.11295 18.1875 7.25 18.1875C6.38706 18.1875 5.6875 18.8871 5.6875 19.75C5.6875 20.6129 6.38706 21.3125 7.25 21.3125Z" fill="#787B85"/>
<path d="M19.75 21.3125C20.6129 21.3125 21.3125 20.6129 21.3125 19.75C21.3125 18.8871 20.6129 18.1875 19.75 18.1875C18.8871 18.1875 18.1875 18.8871 18.1875 19.75C18.1875 20.6129 18.8871 21.3125 19.75 21.3125Z" fill="#787B85"/>
</svg>
