<svg width="25" height="25" viewBox="0 0 25 25" fill="none" xmlns="http://www.w3.org/2000/svg">
<path d="M18.7989 0H6.19965C2.77558 0 0 2.77557 0 6.19965V12.5493C0 15.9734 2.77558 18.7489 6.19965 18.7489H7.29124V23.957C7.29124 25.0768 8.81664 25.4078 9.28077 24.3888C9.82444 23.1951 10.6972 22.0632 11.812 21.0159C12.528 20.3433 13.2989 19.7472 14.0692 19.2368C14.3882 19.0254 14.6551 18.862 14.8512 18.749H18.799C22.2231 18.749 24.9986 15.9734 24.9986 12.5493V6.19965C24.9986 2.77557 22.223 0 18.7989 0ZM22.9154 12.5493C22.9154 14.8228 21.0724 16.6657 18.7989 16.6657H14.5825C14.4141 16.6657 14.2481 16.7066 14.0989 16.7848C13.8513 16.9146 13.4399 17.1546 12.9185 17.5001C12.0559 18.0717 11.1938 18.7384 10.3856 19.4975C10.0279 19.8336 9.69008 20.179 9.37447 20.5338V17.7073C9.37447 17.132 8.90814 16.6657 8.33288 16.6657H6.19965C3.9261 16.6657 2.08323 14.8228 2.08323 12.5493V6.19965C2.08323 3.9261 3.92614 2.08323 6.19965 2.08323H18.7989C21.0725 2.08323 22.9154 3.92614 22.9154 6.19965V12.5493Z" fill="#787B85"/>
<path d="M6.24961 7.29124C5.09865 7.29124 4.16638 8.22347 4.16638 9.37448C4.16638 10.5255 5.0986 11.4577 6.24961 11.4577C7.40057 11.4577 8.33285 10.5255 8.33285 9.37448C8.33285 8.22347 7.40057 7.29124 6.24961 7.29124Z" fill="#787B85"/>
<path d="M12.4993 7.29124C11.3483 7.29124 10.4161 8.22347 10.4161 9.37448C10.4161 10.5255 11.3483 11.4577 12.4993 11.4577C13.6503 11.4577 14.5825 10.5255 14.5825 9.37448C14.5825 8.22347 13.6503 7.29124 12.4993 7.29124Z" fill="#787B85"/>
<path d="M18.7489 7.29124C17.598 7.29124 16.6657 8.22347 16.6657 9.37448C16.6657 10.5255 17.5979 11.4577 18.7489 11.4577C19.8999 11.4577 20.8322 10.5255 20.8322 9.37448C20.8322 8.22347 19.8999 7.29124 18.7489 7.29124Z" fill="#787B85"/>
</svg>
