<svg width="25" height="25" viewBox="0 0 25 25" fill="none" xmlns="http://www.w3.org/2000/svg">
<g clip-path="url(#clip0_74_439)">
<path d="M1.50003 2C0.677761 2 2.61869e-05 2.67773 2.61869e-05 3.5V21.9531C-0.0312238 22.0684 -0.0195051 22.1895 0.0312762 22.2969C0.171901 22.9785 0.781276 23.5 1.50003 23.5H21C21.7461 23.5 22.3594 22.9375 22.4688 22.2188C22.4727 22.1875 22.4824 22.1562 22.4844 22.125C22.4844 22.1152 22.4844 22.1035 22.4844 22.0938L22.5 22.0156C22.5 22.0098 22.5 22.0059 22.5 22L24.9844 8.59375L25 8.54688V8.5C25 7.67773 24.3223 7 23.5 7V5.5C23.5 4.67773 22.8223 4 22 4H9.01565C9.0176 4.00195 9.01174 4 9.00003 4C8.9844 3.98828 8.93948 3.95117 8.8594 3.85938C8.73635 3.71875 8.59378 3.48438 8.43753 3.23438C8.28128 2.98438 8.11331 2.71875 7.90628 2.48438C7.69925 2.25 7.41018 2 7.00003 2H1.50003ZM1.50003 3H7.00003C6.96878 3 7.03323 3 7.15628 3.14062C7.27932 3.28125 7.4219 3.51562 7.57815 3.76562C7.7344 4.01562 7.90628 4.28125 8.1094 4.51562C8.31253 4.75 8.58987 5 9.00003 5H22C22.2813 5 22.5 5.21875 22.5 5.5V7H4.00003C3.21292 7 2.58596 7.63281 2.53128 8.40625H2.51565L2.50003 8.5L1.00003 16.5938V3.5C1.00003 3.21875 1.21878 3 1.50003 3ZM4.00003 8H23.5C23.7813 8 24 8.21875 24 8.5L21.5469 21.7656L21.5313 21.7969C21.5254 21.8164 21.5196 21.8379 21.5157 21.8594C21.5098 21.8789 21.5039 21.9004 21.5 21.9219C21.5 21.9316 21.5 21.9434 21.5 21.9531C21.5 21.959 21.5 21.9629 21.5 21.9688C21.4922 21.9941 21.4883 22.0195 21.4844 22.0469C21.4824 22.0625 21.4864 22.0781 21.4844 22.0938C21.4824 22.1152 21.4824 22.1348 21.4844 22.1562C21.4219 22.3594 21.2285 22.5 21 22.5H1.50003C1.21878 22.5 1.00003 22.2812 1.00003 22L3.4844 8.59375L3.50003 8.54688V8.5C3.50003 8.21875 3.71878 8 4.00003 8Z" fill="#787B85"/>
</g>
<defs>
<clipPath id="clip0_74_439">
<rect width="25" height="25" fill="white"/>
</clipPath>
</defs>
</svg>
