<svg width="22" height="25" viewBox="0 0 22 25" fill="none" xmlns="http://www.w3.org/2000/svg">
<path fill-rule="evenodd" clip-rule="evenodd" d="M0 12.5C0 5.59643 4.91891 0 10.9867 0C17.0545 0 21.9733 5.59643 21.9733 12.5C21.9733 19.4035 17.0545 25 10.9867 25C4.91891 25 0 19.4035 0 12.5ZM10.9867 1.79303C5.78929 1.79303 1.57597 6.5867 1.57597 12.5C1.57597 18.4131 5.78929 23.207 10.9867 23.207C16.184 23.207 20.3973 18.4131 20.3973 12.5C20.3973 6.5867 16.184 1.79303 10.9867 1.79303ZM12.2309 18.1627C12.2309 18.9445 11.6739 19.5782 10.9867 19.5782C10.2996 19.5782 9.74254 18.9445 9.74254 18.1627C9.74254 17.3809 10.2996 16.7471 10.9867 16.7471C11.6739 16.7471 12.2309 17.3809 12.2309 18.1627ZM8.58147 10.1412C8.58147 8.86177 9.55207 7.64041 10.9869 7.64041C12.4217 7.64041 13.3923 8.86177 13.3923 10.1412C13.3923 11.0683 12.9444 11.5419 12.1721 12.0757C12.0859 12.1353 11.9865 12.201 11.8801 12.2712C11.5762 12.472 11.2156 12.7103 10.9445 12.9506C10.5425 13.307 10.0745 13.882 10.0745 14.7654C10.0745 15.3387 10.483 15.8034 10.9869 15.8034C11.4885 15.8034 11.8956 15.3429 11.8993 14.7732L11.9002 14.7716C11.9146 14.7457 11.9572 14.6849 12.0661 14.5883C12.2345 14.4391 12.4219 14.3155 12.6717 14.1508C12.802 14.0649 12.9493 13.9678 13.1195 13.8501C14.0061 13.2373 15.2171 12.2246 15.2171 10.1412C15.2171 7.64587 13.3676 5.56427 10.9869 5.56427C8.60624 5.56427 6.75667 7.64587 6.75667 10.1412C6.75667 10.7145 7.16518 11.1793 7.66907 11.1793C8.17298 11.1793 8.58147 10.7145 8.58147 10.1412Z" fill="#E0E8E7"/>
</svg>
