<svg width="25" height="25" viewBox="0 0 25 25" fill="none" xmlns="http://www.w3.org/2000/svg">
<path fill-rule="evenodd" clip-rule="evenodd" d="M23.0788 16.8412L21.6745 19.1956L18.487 18.1515L18.1618 18.4412C17.2341 19.2691 16.1686 19.8691 14.9952 20.2221L14.5696 20.3515L13.9132 23.5294H11.0868L10.4304 20.35L10.0048 20.2206C8.83138 19.8677 7.76585 19.2677 6.83821 18.4397L6.51301 18.15L3.32545 19.1941L1.92124 16.8397L4.4389 14.6985L4.34001 14.2691C4.20214 13.6735 4.1332 13.0779 4.1332 12.5C4.1332 11.9221 4.20213 11.3265 4.34001 10.7309L4.43892 10.3015L1.92124 8.16031L3.32545 5.8059L6.51301 6.84854L6.83821 6.55882C7.76585 5.7309 8.83138 5.1309 10.0048 4.77648L10.4304 4.64854L11.0868 1.4706H13.9132L14.5696 4.65002L14.9952 4.77795C16.1686 5.13237 17.2341 5.7309 18.1618 6.56031L18.487 6.85002L21.6745 5.8059L23.0788 8.16031L20.5611 10.3015L20.66 10.7309C20.7978 11.3265 20.8668 11.9221 20.8668 12.5C20.8668 13.0779 20.7979 13.6735 20.66 14.2691L20.5611 14.6985L23.0788 16.8412ZM22.3654 12.5C22.3654 11.9559 22.3145 11.4 22.2111 10.8427L25 8.47207L22.3534 4.03384L18.8347 5.18531C17.946 4.46178 16.9329 3.8912 15.8644 3.51325L15.1391 0H9.86092L9.1356 3.51177C8.05509 3.89118 7.06 4.45294 6.16382 5.18383L2.64658 4.03384L0 8.47207L2.78743 10.8427C2.68552 11.4 2.63457 11.9559 2.63457 12.5C2.63457 13.0441 2.68552 13.6 2.78743 14.1559L1.3269e-05 16.5279L2.64658 20.9662L6.16534 19.8132C7.05402 20.5382 8.0671 21.1074 9.13561 21.4868L9.86094 25H15.1391L15.8644 21.4882C16.9434 21.1074 17.94 20.5471 18.8347 19.8147L22.3534 20.9677L25 16.5294L22.2111 14.1574C22.3145 13.6 22.3654 13.0441 22.3654 12.5ZM12.4998 7.35281C9.60751 7.35281 7.25467 9.66164 7.25467 12.4999C7.25467 15.3381 9.60751 17.6469 12.4998 17.6469C15.3922 17.6469 17.745 15.3381 17.745 12.4999C17.745 9.66164 15.3922 7.35281 12.4998 7.35281ZM12.4998 16.1763C10.4347 16.1763 8.75329 14.5263 8.75329 12.4999C8.75329 10.4734 10.4347 8.82339 12.4998 8.82339C14.5649 8.82339 16.2464 10.4734 16.2464 12.4999C16.2464 14.5263 14.565 16.1763 12.4999 16.1763" fill="#787B85"/>
</svg>
