<svg width="25" height="25" viewBox="0 0 25 25" fill="none" xmlns="http://www.w3.org/2000/svg">
<path d="M0.708333 24.999C0.3175 24.999 0 24.6156 0 24.1461V13.0886C0 12.6191 0.3175 12.2377 0.708333 12.2377H4.5625C4.95333 12.2377 5.27083 12.6191 5.27083 13.0886V24.1471C5.27083 24.6166 4.95333 25 4.5625 25L0.708333 24.999ZM1.41667 23.2952H3.85417V13.9385H1.41667V23.2952Z" fill="#787B85"/>
<path d="M13.86 24.999C13.4692 24.999 13.1517 24.6156 13.1517 24.1461V7.679C13.1517 7.20951 13.4692 6.82611 13.86 6.82611H17.7142C18.105 6.82611 18.4225 7.20951 18.4225 7.679V24.1461C18.4225 24.6156 18.105 24.999 17.7142 24.999H13.86ZM14.5675 23.2952H17.0058V8.52988H14.5675V23.2952Z" fill="#787B85"/>
<path d="M7.2842 24.999C6.89337 24.999 6.57587 24.6156 6.57587 24.1461V5.51173C6.57587 5.04224 6.89337 4.65884 7.2842 4.65884H11.1375C11.5275 4.65884 11.8459 5.04224 11.8459 5.51173V24.1471C11.8459 24.6166 11.5284 25 11.1375 25L7.2842 24.999ZM7.99253 23.2952H10.43V6.36162H7.99253V23.2952Z" fill="#787B85"/>
<path d="M20.4367 24.999C20.0458 24.999 19.7283 24.6156 19.7283 24.1461V0.850885C19.7283 0.382398 20.0458 0 20.4367 0H24.2917C24.6825 0 25 0.382398 25 0.850885V24.1461C25 24.6156 24.6825 24.999 24.2917 24.999H20.4367ZM21.145 23.2952H23.5842V1.70477H21.145V23.2952Z" fill="#787B85"/>
</svg>
